<?xml version="1.0" encoding="utf-8"?>
<!-- Generator: Adobe Illustrator 15.0.0, SVG Export Plug-In . SVG Version: 6.00 Build 0)  -->
<!DOCTYPE svg PUBLIC "-//W3C//DTD SVG 1.1//EN" "http://www.w3.org/Graphics/SVG/1.1/DTD/svg11.dtd">
<svg version="1.1" id="Calque_1" xmlns="http://www.w3.org/2000/svg" xmlns:xlink="http://www.w3.org/1999/xlink" x="0px" y="0px"
	 width="841.89px" height="595.28px" viewBox="0 0 841.89 595.28" enable-background="new 0 0 841.89 595.28" xml:space="preserve">
<path fill="#194150" d="M241.222,74.649v59.906c0,4.471,3.582,8.094,8,8.094h72c4.418,0,8-3.623,8-8.094V74.649H241.222z
	 M263.222,136.649h-16v-16h16V136.649z M263.222,116.649h-16v-16h16V116.649z M263.222,96.649h-16v-16h16V96.649z M283.222,136.649
	h-16v-16h16V136.649z M283.222,116.649h-16v-16h16V116.649z M283.222,96.649h-16v-16h16V96.649z M303.222,136.649h-16v-16h16
	V136.649z M303.222,116.649h-16v-16h16V116.649z M303.222,96.649h-16v-16h16V96.649z M323.222,136.649h-16v-16h16V136.649z
	 M323.222,116.649h-16v-16h16V116.649z M323.222,96.649h-16v-16h16V96.649z"/>
<path fill="#194150" d="M321.222,54.649h-13v-9c0-1.656-1.344-3-3-3s-3,1.344-3,3v9h-34v-9c0-1.656-1.344-3-3-3s-3,1.344-3,3v9h-13
	c-4.418,0-8,3.623-8,8.094v6.906l0,0v1h88v-1l0,0v-6.906C329.222,58.272,325.64,54.649,321.222,54.649z M265.222,68.649
	c-3.312,0-6-2.688-6-6c0-2.219,1.209-4.152,3-5.189v5.189c0,1.656,1.344,3,3,3s3-1.344,3-3v-5.191c1.793,1.039,3,2.973,3,5.191
	C271.222,65.961,268.536,68.649,265.222,68.649z M305.222,68.649c-3.312,0-6-2.688-6-6c0-2.219,1.209-4.152,3-5.189v5.189
	c0,1.656,1.344,3,3,3s3-1.344,3-3v-5.191c1.793,1.039,3,2.973,3,5.191C311.222,65.961,308.536,68.649,305.222,68.649z"/>
<path fill="#194150" d="M584.57,54.649h-57.332v-9c0-1.656-1.345-3-3.001-3s-3,1.344-3,3v9H401.229v-9c0-1.656-1.344-3-3-3
	s-3,1.344-3,3v9h-53.002c-4.418,0-8,3.623-8,8.094v6.906l0,0v1h258.345v-1l0,0v-6.906C592.571,58.272,588.988,54.649,584.57,54.649z
	 M398.229,68.649c-3.312,0-6-2.688-6-6c0-2.219,1.209-4.152,3-5.189v5.189c0,1.656,1.344,3,3,3s3-1.344,3-3v-5.191
	c1.793,1.039,3,2.973,3,5.191C404.229,65.961,401.543,68.649,398.229,68.649z M524.237,68.649c-3.312,0-6-2.688-6-6
	c0-2.219,1.209-4.152,3-5.189v5.189c0,1.656,1.344,3,3,3s3.001-1.344,3.001-3v-5.191c1.793,1.039,3,2.973,3,5.191
	C530.238,65.961,527.553,68.649,524.237,68.649z"/>
<g>
	<path fill="#194150" d="M272.679,127.764c-1.384,0-2.647-0.38-3.652-1.1c-5.254-3.766-7.11-9.438-8.906-14.924
		c-0.452-1.379-0.23-2.768,0.616-3.935c1.187-1.637,3.585-2.736,5.97-2.736c2.561,0,4.497,1.242,5.178,3.322l0.124,0.38
		c0.573,1.756,1.123,3.443,1.825,4.999c6.178-6.68,13.384-12.359,20.37-17.864c2.115-1.667,4.231-3.334,6.322-5.03
		c1.132-0.918,2.618-1.425,4.185-1.425c2.635,0,4.955,1.351,5.64,3.284c0.281,0.792,0.657,2.859-1.91,4.941
		c-2.131,1.729-4.323,3.447-6.443,5.109c-8.461,6.633-17.21,13.492-23.698,22.336C277.098,126.751,274.945,127.764,272.679,127.764
		L272.679,127.764z"/>
	<path fill="#FFFFFF" d="M304.71,90.95c3.274,0,6.279,2.726,2.785,5.561c-10.702,8.682-22.162,16.484-30.406,27.723
		c-0.953,1.295-2.713,2.031-4.41,2.031c-1.01,0-1.998-0.261-2.779-0.82c-4.861-3.484-6.566-8.711-8.361-14.195
		c-0.887-2.709,2.318-4.68,5.168-4.68c1.674,0,3.226,0.68,3.753,2.29c0.865,2.648,1.682,5.246,3.039,7.523
		c8.173-9.316,18.338-16.527,27.972-24.342C302.41,91.277,303.576,90.95,304.71,90.95 M304.71,87.95c-1.91,0-3.732,0.625-5.131,1.76
		c-2.079,1.687-4.227,3.379-6.305,5.017c-6.432,5.069-13.049,10.284-18.918,16.312c-0.317-0.881-0.616-1.797-0.921-2.733
		l-0.124-0.379c-0.881-2.689-3.412-4.357-6.604-4.358c-2.886,0-5.707,1.317-7.185,3.356c-1.135,1.566-1.432,3.433-0.835,5.257
		c1.878,5.739,3.812,11.649,9.465,15.701c1.263,0.904,2.828,1.381,4.527,1.381c2.734,0,5.35-1.246,6.827-3.253
		c6.368-8.681,14.649-15.173,23.417-22.046c2.125-1.666,4.322-3.388,6.463-5.125c3.31-2.685,2.766-5.515,2.378-6.607
		C310.87,89.711,307.969,87.95,304.71,87.95L304.71,87.95z"/>
</g>
<g>
	<path fill="#194150" d="M386.775,74.508h2.947v2.849v24.265h3.438h2.849v2.947v35.267v2.849h-2.849H365.36h-28.292h-2.849v-2.849
		V77.356v-2.849h2.849H386.775z M371.745,117.24v5.796h-2.259v13.852h20.728v-28.881h-15.03v-5.796h8.743V80.304h-43.912v56.584
		h23.675v-13.852h-1.768v-5.796H371.745z M357.894,92.976l2.849-2.849l4.126,4.027l-2.947,2.849l2.947,3.537l-4.126,4.027
		l-2.849-3.537l-3.438,3.537l-4.126-4.027l3.537-3.537l-3.537-2.849l4.126-4.027L357.894,92.976z"/>
	<path fill="#194150" d="M459.467,74.508h2.947v2.849v62.479v2.849h-2.947h-56.583h-2.947v-2.849V77.356v-2.849h2.947H459.467z
		 M435.202,95.923h5.796v2.259h15.62V80.304h-50.886v56.584h50.886v-17.29h-15.62v1.67h-5.796v-9.824h5.796v2.358h15.62v-9.824
		h-15.62v1.769h-5.796V95.923z"/>
	<path fill="#194150" d="M519.683,74.508h2.849v2.849v62.479v2.849h-2.849h-49.708h-2.849v-2.849V77.356v-2.849h2.849H519.683z
		 M502.884,101.621h13.95V80.304h-44.01v39.294h12.771v-2.358h5.796v10.413h-5.796v-2.259h-12.771v11.494h44.01v-29.471h-13.95
		v2.357h-5.697V99.361h5.697V101.621z"/>
	<path fill="#194150" d="M589.624,74.508h2.947v2.849v62.479v2.849h-2.947h-60.121h-2.849v-2.849V77.356v-2.849h2.849H589.624z
		 M567.128,116.651v5.796h-4.617v14.441h24.265V80.206H532.45v56.682h24.265v-14.441h-4.617v-5.796H567.128z M559.563,96.415
		l2.947-2.849l4.617,4.028l-3.438,2.849l3.438,3.537l-4.617,4.028l-2.947-3.438l-3.438,3.438l-4.027-4.028l3.438-3.537l-3.438-2.849
		l4.027-4.028L559.563,96.415z"/>
</g>
<path fill="#194150" d="M241.222,254.658v59.907c0,4.471,3.582,8.094,8,8.094h72c4.418,0,8-3.623,8-8.094v-59.907H241.222z
	 M263.222,316.658h-16v-16h16V316.658z M263.222,296.658h-16v-16h16V296.658z M263.222,276.658h-16v-16h16V276.658z
	 M283.222,316.658h-16v-16h16V316.658z M283.222,296.658h-16v-16h16V296.658z M283.222,276.658h-16v-16h16V276.658z
	 M303.222,316.658h-16v-16h16V316.658z M303.222,296.658h-16v-16h16V296.658z M303.222,276.658h-16v-16h16V276.658z
	 M323.222,316.658h-16v-16h16V316.658z M323.222,296.658h-16v-16h16V296.658z M323.222,276.658h-16v-16h16V276.658z"/>
<path fill="#194150" d="M321.222,234.658h-13v-9c0-1.656-1.344-3-3-3s-3,1.344-3,3v9h-34v-9c0-1.656-1.344-3-3-3s-3,1.344-3,3v9h-13
	c-4.418,0-8,3.623-8,8.094v6.906l0,0v1h88v-1l0,0v-6.906C329.222,238.281,325.64,234.658,321.222,234.658z M265.222,248.658
	c-3.312,0-6-2.688-6-6c0-2.219,1.209-4.152,3-5.189v5.189c0,1.656,1.344,3,3,3s3-1.344,3-3v-5.191c1.793,1.039,3,2.973,3,5.191
	C271.222,245.97,268.536,248.658,265.222,248.658z M305.222,248.658c-3.312,0-6-2.688-6-6c0-2.219,1.209-4.152,3-5.189v5.189
	c0,1.656,1.344,3,3,3s3-1.344,3-3v-5.191c1.793,1.039,3,2.973,3,5.191C311.222,245.97,308.536,248.658,305.222,248.658z"/>
<g>
	<path fill="#194150" d="M272.679,307.772c-1.384,0-2.647-0.38-3.652-1.1c-5.254-3.766-7.11-9.439-8.906-14.925
		c-0.452-1.379-0.23-2.768,0.616-3.935c1.187-1.637,3.585-2.736,5.97-2.736c2.561,0,4.497,1.242,5.178,3.322l0.124,0.38
		c0.573,1.757,1.123,3.443,1.825,4.999c6.178-6.679,13.384-12.359,20.37-17.864c2.115-1.667,4.231-3.334,6.322-5.03
		c1.132-0.918,2.618-1.425,4.185-1.425c2.635,0,4.955,1.351,5.64,3.284c0.281,0.792,0.657,2.859-1.91,4.941
		c-2.131,1.729-4.323,3.447-6.443,5.109c-8.461,6.634-17.21,13.492-23.698,22.336C277.098,306.761,274.945,307.772,272.679,307.772
		L272.679,307.772z"/>
	<path fill="#FFFFFF" d="M304.71,270.958c3.274,0,6.279,2.726,2.785,5.561c-10.702,8.682-22.162,16.484-30.406,27.723
		c-0.953,1.295-2.713,2.03-4.41,2.03c-1.01,0-1.998-0.261-2.779-0.819c-4.861-3.484-6.566-8.711-8.361-14.195
		c-0.887-2.71,2.318-4.681,5.168-4.681c1.674,0.001,3.226,0.681,3.753,2.29c0.865,2.648,1.682,5.246,3.039,7.523
		c8.173-9.316,18.338-16.527,27.972-24.342C302.41,271.286,303.576,270.958,304.71,270.958 M304.71,267.958
		c-1.91,0-3.732,0.625-5.131,1.76c-2.079,1.687-4.227,3.379-6.305,5.017c-6.432,5.069-13.049,10.284-18.918,16.312
		c-0.317-0.881-0.616-1.797-0.921-2.733l-0.124-0.379c-0.881-2.689-3.412-4.357-6.604-4.358c-2.886,0-5.707,1.317-7.185,3.356
		c-1.135,1.565-1.432,3.433-0.835,5.257c1.878,5.74,3.812,11.649,9.465,15.701c1.263,0.904,2.828,1.381,4.527,1.381
		c2.734,0,5.35-1.246,6.827-3.253c6.368-8.681,14.649-15.173,23.417-22.046c2.125-1.666,4.322-3.388,6.463-5.125
		c3.31-2.685,2.766-5.515,2.378-6.607C310.87,269.72,307.969,267.958,304.71,267.958L304.71,267.958z"/>
</g>
<g>
	<path fill="#194150" d="M386.775,254.517h2.947v2.849v24.265h3.438h2.849v2.947v35.268v2.849h-2.849H365.36h-28.292h-2.849v-2.849
		v-62.479v-2.849h2.849H386.775z M371.745,297.25v5.795h-2.259v13.853h20.728v-28.882h-15.03v-5.796h8.743v-21.907h-43.912v56.585
		h23.675v-13.853h-1.768v-5.795H371.745z M357.894,272.985l2.849-2.849l4.126,4.027l-2.947,2.849l2.947,3.537l-4.126,4.028
		l-2.849-3.537l-3.438,3.537l-4.126-4.028l3.537-3.537l-3.537-2.849l4.126-4.027L357.894,272.985z"/>
	<path fill="#194150" d="M459.467,254.517h2.947v2.849v62.479v2.849h-2.947h-56.583h-2.947v-2.849v-62.479v-2.849h2.947H459.467z
		 M435.202,275.932h5.796v2.259h15.62v-17.879h-50.886v56.585h50.886v-17.29h-15.62v1.67h-5.796v-9.824h5.796v2.358h15.62v-9.824
		h-15.62v1.769h-5.796V275.932z"/>
	<path fill="#194150" d="M519.683,254.517h2.849v2.849v62.479v2.849h-2.849h-49.708h-2.849v-2.849v-62.479v-2.849h2.849H519.683z
		 M502.884,281.63h13.95v-21.317h-44.01v39.295h12.771v-2.358h5.796v10.413h-5.796v-2.259h-12.771v11.494h44.01v-29.472h-13.95
		v2.357h-5.697V279.37h5.697V281.63z"/>
	<path fill="#194150" d="M589.624,254.517h2.947v2.849v62.479v2.849h-2.947h-60.121h-2.849v-2.849v-62.479v-2.849h2.849H589.624z
		 M567.128,296.66v5.796h-4.617v14.441h24.265v-56.683H532.45v56.683h24.265v-14.441h-4.617v-5.796H567.128z M559.563,276.423
		l2.947-2.849l4.617,4.028l-3.438,2.849l3.438,3.537l-4.617,4.028l-2.947-3.438l-3.438,3.438l-4.027-4.028l3.438-3.537l-3.438-2.849
		l4.027-4.028L559.563,276.423z"/>
</g>
<path fill="#194150" d="M584.57,234.658h-57.332v-9c0-1.656-1.345-3-3.001-3s-3,1.344-3,3v9H401.229v-9c0-1.656-1.344-3-3-3
	s-3,1.344-3,3v9h-53.002c-4.418,0-8,3.623-8,8.094v6.906v1h258.345v-1v-6.906C592.571,238.281,588.988,234.658,584.57,234.658z
	 M398.229,248.658c-3.312,0-6-2.688-6-6c0-2.219,1.209-4.152,3-5.189v5.189c0,1.656,1.344,3,3,3s3-1.344,3-3v-5.191
	c1.793,1.039,3,2.973,3,5.191C404.229,245.97,401.543,248.658,398.229,248.658z M524.237,248.658c-3.312,0-6-2.688-6-6
	c0-2.219,1.209-4.152,3-5.189v5.189c0,1.656,1.344,3,3,3s3.001-1.344,3.001-3v-5.191c1.793,1.039,3,2.973,3,5.191
	C530.238,245.97,527.553,248.658,524.237,248.658z M588.499,249.312c-1.288,0-2.333-1.044-2.333-2.333
	c0-1.289,1.045-2.333,2.333-2.333c1.289,0,2.334,1.044,2.334,2.333C590.833,248.267,589.788,249.312,588.499,249.312z"/>
<g>
	<g>
		<path fill="#194150" d="M587.296,248.387c0.371,2.926-0.931,5.775-0.118,8.739c0.384,1.398,2.554,0.804,2.17-0.598
			c-0.745-2.715,0.542-5.429,0.198-8.141C589.366,246.968,587.113,246.95,587.296,248.387L587.296,248.387z"/>
	</g>
</g>
<path fill="none" stroke="#194150" stroke-width="2" stroke-miterlimit="10" d="M600.563,340.557
	c-0.463,0.684-1.393,0.861-2.075,0.399l-2.766-1.873c-0.683-0.464-0.861-1.393-0.399-2.075l3.056-4.512
	c0.465-0.685,1.393-0.864,2.078-0.399l2.765,1.873c0.683,0.462,0.863,1.392,0.399,2.076L600.563,340.557z"/>
<path fill="none" stroke="#194150" stroke-width="2" stroke-miterlimit="10" d="M575.88,376.44c-0.231,0.34-7.7,5.722-7.7,5.722
	s2.229-8.934,2.459-9.273l20.809-30.718c0.464-0.683,1.394-0.863,2.078-0.398l2.765,1.872c0.684,0.463,0.861,1.396,0.399,2.079
	L575.88,376.44z"/>
<line fill="none" stroke="#194150" stroke-width="2" stroke-miterlimit="10" x1="570.639" y1="372.889" x2="575.88" y2="376.44"/>
<g>
	<g>
		<path fill="#194150" d="M587.499,321.978c0.136,1.604,0.075,1.464,0.681,2.971c1.663,4.136,1.254,6.665-1.712,9.972
			c-2.965,3.307-6.543,6.023-9.568,9.282c-4.652,5.011-0.267,9.346,4.282,12.122c1.241,0.758,2.371-1.188,1.135-1.943
			c-2.247-1.371-6.355-3.84-4.614-7.507c0.779-1.642,2.965-3.361,4.313-4.64c2.424-2.3,4.919-4.469,7.154-6.961
			c1.133-1.264,2.189-3.18,2.345-4.918c0.312-3.483-1.481-5.016-1.766-8.378C589.628,320.543,587.377,320.531,587.499,321.978
			L587.499,321.978z"/>
	</g>
</g>
<g>
	<g>
		<path fill="#194150" d="M581.682,356.72c1.055,0.534,2.073,1.062,3.163,1.54c0.603,0.265,1.186,0.581,1.746,0.923
			c0.261,0.157,0.499,0.343,0.715,0.558c0.105,0.119,0.21,0.238,0.315,0.356c0.429-0.474,0.398-0.601-0.091-0.38
			c-1.448,0.04-1.452,2.29,0,2.25c2.131-0.06,3.16-1.897,1.63-3.535c-1.647-1.763-4.24-2.59-6.344-3.655
			C581.525,354.122,580.387,356.063,581.682,356.72L581.682,356.72z"/>
	</g>
</g>
<path fill="#194150" d="M241.222,444.674v59.909c0,4.471,3.582,8.094,8,8.094h72c4.418,0,8-3.623,8-8.094v-59.909H241.222z
	 M263.222,506.677h-16v-16.001h16V506.677z M263.222,486.676h-16v-16.001h16V486.676z M263.222,466.675h-16v-16.001h16V466.675z
	 M283.222,506.677h-16v-16.001h16V506.677z M283.222,486.676h-16v-16.001h16V486.676z M283.222,466.675h-16v-16.001h16V466.675z
	 M303.222,506.677h-16v-16.001h16V506.677z M303.222,486.676h-16v-16.001h16V486.676z M303.222,466.675h-16v-16.001h16V466.675z
	 M323.222,506.677h-16v-16.001h16V506.677z M323.222,486.676h-16v-16.001h16V486.676z M323.222,466.675h-16v-16.001h16V466.675z"/>
<path fill="#194150" d="M321.222,424.673h-13v-9c0-1.656-1.344-3.001-3-3.001s-3,1.345-3,3.001v9h-34v-9
	c0-1.656-1.344-3.001-3-3.001s-3,1.345-3,3.001v9h-13c-4.418,0-8,3.623-8,8.094v6.907l0,0v1h88v-1l0,0v-6.907
	C329.222,428.296,325.64,424.673,321.222,424.673z M265.222,438.674c-3.312,0-6-2.688-6-6.001c0-2.219,1.209-4.152,3-5.189v5.189
	c0,1.657,1.344,3.001,3,3.001s3-1.344,3-3.001v-5.191c1.793,1.039,3,2.973,3,5.191C271.222,435.986,268.536,438.674,265.222,438.674
	z M305.222,438.674c-3.312,0-6-2.688-6-6.001c0-2.219,1.209-4.152,3-5.189v5.189c0,1.657,1.344,3.001,3,3.001s3-1.344,3-3.001
	v-5.191c1.793,1.039,3,2.973,3,5.191C311.222,435.986,308.536,438.674,305.222,438.674z"/>
<g>
	<path fill="#194150" d="M272.679,497.792c-1.384,0-2.647-0.381-3.652-1.101c-5.254-3.767-7.111-9.439-8.906-14.926
		c-0.452-1.379-0.23-2.768,0.616-3.934c1.187-1.637,3.585-2.736,5.97-2.736c2.561,0,4.497,1.241,5.178,3.322l0.124,0.38
		c0.573,1.756,1.123,3.443,1.825,4.998c6.178-6.681,13.385-12.36,20.372-17.866c2.115-1.666,4.23-3.334,6.32-5.029
		c1.132-0.919,2.618-1.425,4.185-1.425c2.635,0,4.955,1.351,5.64,3.284c0.281,0.792,0.657,2.859-1.91,4.941
		c-2.132,1.729-4.324,3.448-6.444,5.11c-8.461,6.633-17.21,13.492-23.698,22.336C277.098,496.779,274.945,497.792,272.679,497.792z"
		/>
	<path fill="#FFFFFF" d="M304.71,460.976c3.274,0,6.279,2.727,2.785,5.561c-10.702,8.683-22.162,16.485-30.406,27.725
		c-0.953,1.295-2.713,2.031-4.41,2.031c-1.01,0-1.998-0.261-2.779-0.82c-4.861-3.485-6.566-8.712-8.361-14.196
		c-0.887-2.71,2.318-4.681,5.168-4.68c1.674,0,3.226,0.68,3.753,2.289c0.865,2.648,1.682,5.246,3.039,7.523
		c8.173-9.316,18.338-16.528,27.972-24.343C302.41,461.303,303.576,460.976,304.71,460.976 M304.71,457.976
		c-1.91,0-3.732,0.625-5.131,1.76c-2.079,1.687-4.226,3.38-6.303,5.017c-6.433,5.069-13.051,10.285-18.92,16.313
		c-0.317-0.881-0.616-1.797-0.921-2.732l-0.124-0.38c-0.881-2.688-3.412-4.357-6.604-4.357c-2.886-0.001-5.707,1.316-7.185,3.355
		c-1.135,1.565-1.432,3.433-0.835,5.257c1.878,5.74,3.812,11.649,9.464,15.702c1.264,0.904,2.829,1.382,4.527,1.382
		c2.734,0,5.35-1.247,6.827-3.253c6.368-8.683,14.649-15.174,23.416-22.047c2.125-1.666,4.322-3.389,6.464-5.126
		c3.31-2.686,2.766-5.516,2.378-6.607C310.87,459.736,307.969,457.976,304.71,457.976L304.71,457.976z"/>
</g>
<g>
	<path fill="#194150" d="M386.775,444.533h2.947v2.849v24.266h3.438h2.849v2.947v35.269v2.849h-2.849H365.36h-28.292h-2.849v-2.849
		v-62.481v-2.849h2.849H386.775z M371.745,487.268v5.796h-2.259v13.853h20.728v-28.883h-15.03v-5.797h8.743v-21.907h-43.912v56.587
		h23.675v-13.853h-1.768v-5.796H371.745z M357.894,463.002l2.849-2.849l4.126,4.027l-2.947,2.85l2.947,3.536l-4.126,4.028
		l-2.849-3.537l-3.438,3.537l-4.126-4.028l3.537-3.536l-3.537-2.85l4.126-4.027L357.894,463.002z"/>
	<path fill="#194150" d="M459.467,444.533h2.947v2.849v62.481v2.849h-2.947h-56.583h-2.947v-2.849v-62.481v-2.849h2.947H459.467z
		 M435.202,465.949h5.796v2.26h15.62v-17.88h-50.886v56.587h50.886v-17.291h-15.62v1.67h-5.796v-9.824h5.796v2.358h15.62v-9.824
		h-15.62v1.769h-5.796V465.949z"/>
	<path fill="#194150" d="M519.683,444.533h2.849v2.849v62.481v2.849h-2.849h-49.708h-2.849v-2.849v-62.481v-2.849h2.849H519.683z
		 M502.884,471.647h13.95v-21.318h-44.01v39.296h12.771v-2.357h5.796v10.413h-5.796v-2.259h-12.771v11.494h44.01v-29.473h-13.95
		v2.357h-5.697v-10.413h5.697V471.647z"/>
	<path fill="#194150" d="M589.624,444.533h2.947v2.849v62.481v2.849h-2.947h-60.121h-2.849v-2.849v-62.481v-2.849h2.849H589.624z
		 M567.128,486.678v5.796h-4.617v14.442h24.265V450.23H532.45v56.686h24.265v-14.442h-4.617v-5.796H567.128z M559.563,466.44
		l2.947-2.849l4.617,4.027l-3.438,2.849l3.438,3.537l-4.617,4.028l-2.947-3.438l-3.438,3.438l-4.027-4.028l3.438-3.537l-3.438-2.849
		l4.027-4.027L559.563,466.44z"/>
</g>
<path fill="#194150" d="M584.57,424.673h-57.332v-9c0-1.656-1.345-3.001-3.001-3.001s-3,1.345-3,3.001v9H401.229v-9
	c0-1.656-1.344-3.001-3-3.001s-3,1.345-3,3.001v9h-53.002c-4.418,0-8,3.623-8,8.094v6.907v1h258.345v-1v-6.907
	C592.571,428.296,588.988,424.673,584.57,424.673z M398.229,438.674c-3.312,0-6-2.688-6-6.001c0-2.219,1.209-4.152,3-5.189v5.189
	c0,1.657,1.344,3.001,3,3.001s3-1.344,3-3.001v-5.191c1.793,1.039,3,2.973,3,5.191C404.229,435.986,401.543,438.674,398.229,438.674
	z M524.237,438.674c-3.312,0-6-2.688-6-6.001c0-2.219,1.209-4.152,3-5.189v5.189c0,1.657,1.344,3.001,3,3.001
	s3.001-1.344,3.001-3.001v-5.191c1.793,1.039,3,2.973,3,5.191C530.238,435.986,527.553,438.674,524.237,438.674z"/>
<path fill="none" stroke="#194150" stroke-width="2" stroke-miterlimit="10" d="M600.563,530.575
	c-0.463,0.684-1.393,0.861-2.075,0.399l-2.766-1.873c-0.683-0.464-0.861-1.393-0.399-2.075l3.056-4.512
	c0.465-0.685,1.393-0.864,2.078-0.399l2.765,1.873c0.683,0.462,0.863,1.392,0.399,2.076L600.563,530.575z"/>
<path fill="none" stroke="#194150" stroke-width="2" stroke-miterlimit="10" d="M575.88,566.459c-0.231,0.34-7.7,5.722-7.7,5.722
	s2.229-8.934,2.459-9.273l20.809-30.718c0.464-0.683,1.394-0.863,2.078-0.398l2.765,1.872c0.684,0.463,0.861,1.396,0.399,2.079
	L575.88,566.459z"/>
<line fill="none" stroke="#194150" stroke-width="2" stroke-miterlimit="10" x1="570.639" y1="562.907" x2="575.88" y2="566.459"/>
<g>
	<g>
		<path fill="#194150" d="M587.499,511.996c0.136,1.604,0.075,1.464,0.681,2.971c1.663,4.136,1.254,6.665-1.712,9.972
			c-2.965,3.307-6.543,6.023-9.568,9.282c-4.652,5.011-0.267,9.346,4.282,12.122c1.241,0.758,2.371-1.188,1.135-1.943
			c-2.247-1.371-6.355-3.84-4.614-7.507c0.779-1.642,2.965-3.361,4.313-4.64c2.424-2.3,4.919-4.469,7.154-6.961
			c1.133-1.264,2.189-3.18,2.345-4.918c0.312-3.483-1.481-5.016-1.766-8.378C589.628,510.562,587.377,510.55,587.499,511.996
			L587.499,511.996z"/>
	</g>
</g>
<g>
	<g>
		<path fill="#194150" d="M581.682,546.738c1.055,0.534,2.073,1.062,3.163,1.54c0.603,0.265,1.186,0.581,1.746,0.923
			c0.261,0.157,0.499,0.343,0.715,0.558c0.105,0.119,0.21,0.238,0.315,0.356c0.429-0.474,0.398-0.601-0.091-0.38
			c-1.448,0.04-1.452,2.29,0,2.25c2.131-0.06,3.16-1.897,1.63-3.535c-1.647-1.763-4.24-2.59-6.344-3.655
			C581.525,544.141,580.387,546.082,581.682,546.738L581.682,546.738z"/>
	</g>
</g>
</svg>
